<?xml version="1.0" encoding="iso-8859-1"?>
<!-- Uploaded to: SVG Repo, www.svgrepo.com, Generator: SVG Repo Mixer Tools -->
<svg fill="#000000" height="800px" width="800px" version="1.1" id="Capa_1" xmlns="http://www.w3.org/2000/svg" xmlns:xlink="http://www.w3.org/1999/xlink" 
	 viewBox="0 0 226 226" xml:space="preserve">
<path d="M217.5,0H8.5v201h25v25h159v-25h25V0z M25.5,23h127v92h-127V23z M109.141,168l0.026,3.323
	c-1.615,0.469-3.063,1.23-4.315,2.271c-2.365,1.955-3.604,4.602-3.584,7.649c0.015,2.669,1.024,5.029,2.926,6.833
	c1.762,1.649,4.371,2.886,7.753,3.672c3.229,0.757,4.709,1.545,5.378,2.069c0.757,0.598,1.094,1.339,1.094,2.401
	c0,1.416-0.384,2.414-1.212,3.145c-0.884,0.784-2.219,1.189-3.958,1.204c-1.732,0-2.449-0.37-3.335-1.165
	c-0.838-0.726-1.239-1.756-1.264-3.271l-0.068-1.92l-7.644,0.026l-0.213,2.719l0.003,0.081c0.082,2.755,1.343,5.201,3.769,7.292
	c1.631,1.349,3.027,2.285,4.859,2.804l0.025,3.866H48.5v-43H109.141z M177.5,211h-60.159l-0.029-3.877
	c2.011-0.52,3.752-1.425,5.177-2.688c2.531-2.162,3.805-4.968,3.785-8.331c0-2.822-1.101-5.31-3.188-7.198
	c-1.952-1.75-4.853-3.087-8.629-3.975c-2.827-0.648-3.995-1.374-4.454-1.761c-0.592-0.486-0.867-1.122-0.867-2.014
	c-0.009-1.112,0.277-1.829,0.97-2.407c0.741-0.633,1.926-0.967,3.524-0.967c1.306,0,1.724,0.252,2.428,0.87
	c0.663,0.582,1.095,1.593,1.291,3.043l0.269,1.668l7.669-0.047l-0.074-2.06c-0.173-3.254-1.421-5.874-3.725-7.802
	c-1.382-1.126-2.614-1.91-4.376-2.347L117.097,168H177.5V211z M200.5,174h-8v-21h-159v21h-8v-32h175V174z M200.5,114h-32V92h32V114z
	 M200.5,79h-32V58h32V79z M200.5,44h-32V23h32V44z"/>
</svg>